<svg width="60" height="60" viewBox="0 0 60 60" fill="none" xmlns="http://www.w3.org/2000/svg">
<circle cx="29.5902" cy="29.5902" r="29.5902" fill="url(#paint0_linear_1_437)"/>
<path d="M22.4481 23.0165L19.3042 17.58C19.2488 17.4869 19.2161 17.3737 19.2161 17.253C19.2161 16.8921 19.5083 16.6003 19.8698 16.6003C20.1103 16.6003 20.3207 16.7298 20.434 16.9235L20.4353 16.926L23.6182 22.4304C25.995 21.3401 28.7748 20.7038 31.7032 20.7038C34.6317 20.7038 37.4115 21.3401 39.9117 22.4808L39.7883 22.4304L42.9712 16.9248C43.0858 16.7286 43.2974 16.5978 43.538 16.5978C43.8995 16.5978 44.1917 16.8895 44.1917 17.2505C44.1917 17.3712 44.1589 17.4831 44.1023 17.58L44.1035 17.5774L40.9597 23.014C46.3581 25.9907 50.0738 31.436 50.5864 37.783L50.5902 37.8484H12.815C13.3314 31.436 17.0471 25.9907 22.3498 23.0618L22.4455 23.014L22.4481 23.0165ZM40.3992 32.4773C41.2683 32.4773 41.9724 31.7743 41.9724 30.9066C41.9724 30.0388 41.2683 29.3358 40.3992 29.3358C39.5301 29.3358 38.826 30.0388 38.826 30.9066C38.8273 31.773 39.5301 32.476 40.3992 32.4773ZM23.0123 32.4773C23.8814 32.4773 24.5855 31.7743 24.5855 30.9066C24.5855 30.0388 23.8814 29.3358 23.0123 29.3358C22.1432 29.3358 21.4392 30.0388 21.4392 30.9066C21.4404 31.773 22.1432 32.476 23.0123 32.4773Z" fill="white"/>
<defs>
<linearGradient id="paint0_linear_1_437" x1="3.27093" y1="33.6548" x2="59.1804" y2="32.4964" gradientUnits="userSpaceOnUse">
<stop stop-color="#00D3E0"/>
<stop offset="1" stop-color="#38DDE7"/>
</linearGradient>
</defs>
</svg>
