<svg width="60" height="60" viewBox="0 0 60 60" fill="none" xmlns="http://www.w3.org/2000/svg">
<circle cx="29.5902" cy="29.5902" r="29.5902" fill="url(#paint0_linear_1_433)"/>
<path d="M45.0104 15.5112C45.4326 15.8219 46.9002 17.3898 45.0104 17.6273C42.3054 17.9513 37.1563 18.1444 28.6182 25.4069C22.6267 30.6876 17.7854 37.1402 14.4105 44.4338L14.2643 44.7844C14.2261 44.8765 14.1388 44.9409 14.0362 44.9409C14.0122 44.9409 13.9904 44.9375 13.9686 44.9309H13.9707C13.6227 44.8288 12.9974 44.4426 13.3161 42.9646C16.3778 34.3084 21.4549 27.0303 27.9897 21.4622L28.0661 21.3989C31.454 18.4107 39.5416 11.3712 45.0093 15.5123L45.0104 15.5112ZM15.2375 17.5407C15.5562 20.0396 16.6484 25.3636 17.1438 27.6117C17.2278 28.1388 17.3696 28.6104 17.5649 29.0532L17.5508 29.0165C18.2338 30.216 18.787 28.6182 18.787 28.6182C19.2464 27.4242 19.5126 26.0405 19.5126 24.5947C19.5126 21.5798 18.3549 18.8401 16.4684 16.8095L16.4738 16.815C16.2501 16.572 15.9719 16.3834 15.6587 16.2702L15.6445 16.2658C15.2081 16.1337 15.135 16.3845 15.135 16.5931C15.1492 16.7984 15.2234 17.3765 15.2375 17.5385V17.5407Z" fill="white"/>
<defs>
<linearGradient id="paint0_linear_1_433" x1="3.27093" y1="33.6548" x2="59.1804" y2="32.4964" gradientUnits="userSpaceOnUse">
<stop stop-color="#FF4800"/>
<stop offset="1" stop-color="#FF4800"/>
</linearGradient>
</defs>
</svg>
