<svg xmlns="http://www.w3.org/2000/svg" viewBox="0 0 426.35 426.35"><path class="cls-1" d="M150,267.91l3.48,1.3c4.94,1.78,6.11,3.74,5.89,9.63-.14,3.81-1.88,6.66-5.41,7.94-4,1.46-8.84-.68-11.23-4.38-3.47-5.37-3.37-11-1.27-16.74,1.86-5,7-7.43,13.08-7,10.89.85,21.8,1.45,32.7,2.17L229,263.67c4.57.31,9.13.72,13.7.92,2.21.09,3.82,1.11,3.89,3.14.08,2.45-1.65,3.27-4.12,3.12-13.06-.82-26.14-1.52-39.21-2.24Q188,267.77,172.81,267c-1.13-.06-2.25,0-3.66,0,.7,2.38,2.56,3.95,2.62,6.38,0,1.5,1.73,1.11,2.81,1.09,15.92-.32,31.82.3,47.72,1,6.74.28,13.48.57,20.22.7,2.14,0,2.61.69,2.07,2.73-3.73,14-.19,11.28-14.83,12.69s-29.3,2.84-43.94,4.28c-11,1.08-21.94,2.53-32.95,3.19-16.82,1-23.22-10.43-24.84-21.68-1.87-13-1.21-26.08.49-39.12,2-15.07,3.53-30.19,5.59-45.25a270.77,270.77,0,0,0,2.6-32.26c.13-7.39,0-14.94-3.38-21.88-2.61-5.36-4.27-6.15-10.92-5,9.79,4.91,9.43,13.68,9.28,22.39,0,2.17-.88,3.17-3.23,3.1-5-.16-9.93-.21-14.89,0-3.22.11-4.73-1.67-5.32-4.31a31.3,31.3,0,0,1,.24-16.19c2.34-7.75,8.36-12.73,16.75-13.15,17.93-.91,35.88-.48,53.83-.52,28.27-.06,56.54-.16,84.8-.11,12.61,0,20.85,7.13,23.06,19.28,1.57,8.6.78,17.22.37,25.84-.29,6-1.32,11.94-1,17.86.27,5.66-1.77,9.05-7,11-.48-10.07.64-20.05,1.11-30.05.4-8.73,1.44-17.52-1.14-26.11-1.55-5.14-4.75-8.85-10.11-10.3a43.09,43.09,0,0,0-11.3-1.5q-58.65,0-117.28,0c-.83,0-1.74-.32-2.7.52,4.8,6.78,5.69,14.71,6.07,22.65.74,15.42-.69,30.73-2.64,46-2.93,22.88-7.32,45.64-6.47,68.87.21,5.91,1.51,11.56,4.85,16.5,4.17,6.14,12.32,8.07,18.12,4.17,5.2-3.48,5.77-9,5.2-14.58-.43-4.24-3-7-7.13-8.49C153.84,266,152.25,266.18,150,267.91Z"/><path class="cls-2" d="M243.62,232.18c-1.85,4.69.45,8.49.7,12.41.13,2,.84,4,.83,6,0,1.63.67,4-1.14,4.78-2.82,1.19-5.95.7-8.88-.07-.72-.19-.46-1.35-.5-2.1-.11-2.15,0-4.33-.36-6.46-.51-3.46-2.06-6.43-5.8-7.13-2.57-.49-2.26-1.43-1.05-2.93a9.71,9.71,0,0,0,1.66-9.34c-1.09-3.68-4.08-5.4-7.57-4.61-2.76.63-5.3,4.29-4.79,7.36.37,2.3.49,4.83,3.26,6,1.58.67,1.72,2.12.16,2.84-5.77,2.63-7,7.9-8.13,13.27a12.31,12.31,0,0,1-.71,2.15,8,8,0,0,1-1.13,1.33,21.7,21.7,0,0,1,1.88-14.89c2.62-5.11,2.75-5.14-1.56-8.91a2.14,2.14,0,0,1-.5-3.24,29.92,29.92,0,0,0,2-3.65c1.59-3.57.9-6.78-1.8-8.87a8.89,8.89,0,0,0-10.65,0,7.07,7.07,0,0,0-2.41,8.49,30.55,30.55,0,0,1,1.46,4.29c.39,2,.27,3.93-2.21,4.45-3.58.75-4.19,3.64-4.86,6.48a16.76,16.76,0,0,0-.13,2.66c-.21,2.74,1.24,7-.7,7.91-3.38,1.6-7.7.68-11.62.28-1.71-.18-1.29-1.54-1.32-2.64-.19-7.23-1.48-14.41-.72-22.48-3.34,6.9-3,13.63-3.78,20.13-.33,2.65-.91,3.4-3.78,2.56-6.58-1.91-6.57-1.72-6.42-8.84A102.4,102.4,0,0,1,165.24,221c2.23-10.74,7.7-15.58,18.62-16.63.71-.07,1.42-.07,2.33-.12-6.92-5.78-8.49-9.68-6.3-15.26,1.84-4.66,6.68-7.83,11.32-7.41a12.2,12.2,0,0,1,10.72,9.33c1.09,5.11-1.22,9.26-7.57,13.06,1.92.46,3.5.93,5.11,1.21a20.34,20.34,0,0,1,10.13,4.58c2.76,2.37,6.13,1.8,9.37,1.13,2.09-.43,4.15-1,6.62-1.55-4.39-2.6-7.12-6-6.86-11.32a10.28,10.28,0,0,1,2.79-7.19c4.56-4.54,12.21-4.43,16.37.19,5,5.56,4,12.07-3.13,18.2,5.6.5,10.58,2.27,13.5,7.07,2.74,4.5,5.07,9.37,4.94,14.85-.11,4.52-3.26,8.12-4.28,12.4-.08.36-.57,1-1.11.56a4.32,4.32,0,0,1-1.25-1.81C245.59,239.13,245.39,235.8,243.62,232.18Z"/><path class="cls-1" d="M307.75,199a45.85,45.85,0,0,0-13.93,10.79c-15.65,16.95-27.68,36.13-34.32,58.33-2,6.74-3.47,13.81-3.13,20.92.24,4.82-1.72,7.61-5.86,9.42-1.7.75-3.33,1.68-5.63,2.85,1.68-7.52,3.24-14.54,4.82-21.57.88-3.93,1.63-7.91,2.73-11.78a11.05,11.05,0,0,0-1.21-8.49c-1.26-2.42-1-4.8-.26-7.31,1.59-5,3-10.12,4.55-15.17.48-1.57,1-3.17,2.77-4.14l2.87,5.46c2.1-2.69,2.1-2.7.74-6.18-.83-2.13-.08-4,1-5.74,8-13,18.47-23.48,32.15-30.48,5.84-3,11.7-5.89,18.43-6.55,2.2-.22,3.16.13,3.18,2.34a75.24,75.24,0,0,1-1.22,15.9c-.81,3.88-2.6,5.53-6.41,5.31-.73,0-1.56-.2-2,.69-.23.27-.15.42.24.46,6.75.67,6.68,1.67,4.06,7.94-2.25,5.37-6.5,7.81-12.07,8.27-3.21.27-5.94,1.73-8.71,3.55H306.3c-4.17,4.64-7,9.63-13.7,8.71a4.31,4.31,0,0,0-1.52.07c-1.26.29-3.28-.28-3.28,1.7,0,1.38,1.72,1.93,2.94,1.93,3.36,0,3.28,1,1.53,3.44-6.29,8.69-15.15,14-24.39,18.81-1.41.73-2.87,1.36-4.84,2.3C272.27,243,286.76,219.07,307.75,199Z"/><path class="cls-1" d="M269.92,270.81c12.59-8.2,25.58-8.94,38.74-8.21,6.19.35,9.24,4.34,10.22,12.52A21.6,21.6,0,0,1,316,289c-3.59,6-9.23,6.85-15.55,6.15-9.44-1-18.9-2-28.35-3a36,36,0,0,1-3.75-.55c-2.26-.47-5.78.49-6.46-1.94a19.31,19.31,0,0,1,.3-11.25c.71-2.16,2.39-1.56,3.78-1.56,13.74,0,27.49,0,41.23-.08,1.28,0,3.58,1.5,3.94-1.24a4.63,4.63,0,0,0-4.6-5.58c-10.05-.28-20.06,1.26-30.12.81C274.63,270.74,272.79,270.81,269.92,270.81Z"/><path class="cls-3" d="M187.75,171.59c-3.23-3.58-6.44-6.08-6.89-10.34-.21-1.95-.41-3.05,2.42-2.27a23.62,23.62,0,0,1,15.12,12.25c1.5,2.77.78,3.82-2.05,3.65-9.47-.55-18.55,1.7-27.7,3.53s-13.66,6.68-13.76,16.27c-.17,15.62.06,31.26.21,46.89.05,4.43-2.21,6.2-6.39,4.81-1.31-.43-.94-1.34-1-2.12-.4-16.89-1.33-33.79-.58-50.68.55-12.43,7.41-19.56,19.67-21.25C173.48,171.42,180.15,170.45,187.75,171.59Z"/><path class="cls-4" d="M229.21,174.8c.77-3.15,2.67-4.07,5.53-4,9.44.26,18.6,1.64,27.1,6.08a14.76,14.76,0,0,1,8.1,11.27,71.28,71.28,0,0,1,.82,16.7c-.41,4.93-4.44,7.87-7.75,11.45.22-4.61.16-9.25.7-13.82,1.3-11.06-1.12-17.92-8.15-21.45a56.78,56.78,0,0,0-12.9-4.2A131.37,131.37,0,0,0,229.21,174.8Z"/><path class="cls-5" d="M205.28,160.77c-.15,3.27-.28,6.13-.42,9.12-4.21-3.06-6.75-10.11-5.53-14.82a46.13,46.13,0,0,1,5.7-12.29c1.33-2.21,3-3,4.67-.57,3.32,4.8,5.9,9.95,6.12,16,.15,3.93-1.91,7-4.06,9.94-.92,1.26-2.57,2.18-4,1.63s-1.33-2.27-1.27-3.74S206.84,162.71,205.28,160.77Z"/><path class="cls-6" d="M220.46,175c-1.42-.71-4.23.63-5.12-1.4-.81-1.86,1.61-3.23,2.73-4.61,3.62-4.43,7.8-8.18,13.49-10,1.73-.56,2,0,2.14,1.27C234.32,165.56,226.9,176.28,220.46,175Z"/></svg>