<svg xmlns="http://www.w3.org/2000/svg" viewBox="0 0 426.35 426.35">
<path class="cls-1" d="M301.33,244.64c-6,8.78-12.47,17.25-19,25.66-.65.84-1.17,2-2.43,2.26-.39-.34-.79-.65-1.15-1-4.93-4.95-9.84-9.93-14.79-14.85-1.84-1.83-1.25-3.35.39-4.84,3.65-3.3,5.18-3.26,8.73.21,4.85,4.75,4.84,4.75,9.22-.7,4.13-5.13,8.33-10.2,12.38-15.4,1.18-1.51,2.08-1.51,3.8-.81C306.1,238.24,305.9,238,301.33,244.64Z"/>
<path class="cls-1" d="M301.33,244.64c-6,8.78-12.47,17.25-19,25.66-.65.84-1.17,2-2.43,2.26-.39-.34-.79-.65-1.15-1-4.93-4.95-9.84-9.93-14.79-14.85-1.84-1.83-1.25-3.35.39-4.84,3.65-3.3,5.18-3.26,8.73.21,4.85,4.75,4.84,4.75,9.22-.7,4.13-5.13,8.33-10.2,12.38-15.4,1.18-1.51,2.08-1.51,3.8-.81C306.1,238.24,305.9,238,301.33,244.64Z"/>
<path class="cls-2" d="M270.24,192.33a25,25,0,0,0-7.43-1.32c-33.62-.06-67.24-.18-100.85-.19-7.86,0-11.56,3.82-11.58,11.77q0,32.46.07,64.92c0,12,6.23,18.19,18.31,18.2q39,0,77.94,0c.83,0,1.74.34,2.5-.3.19-.84-.49-1.11-.89-1.55-4.34-4.73-7.71-10.15-9.11-16.36-3.35-14.89-2.17-30.08-2.36-45.17,0-1.94.55-2.86,2.79-3.11a88.42,88.42,0,0,0,18.12-3.82c5.95-2,12.13-3.66,16.52-8.71C279.25,201,277.49,194.61,270.24,192.33ZM224,236.89c-2.5,2.69-3.58,5-2.65,8.72,1.24,5,1.56,10.22,2.41,15.33.43,2.6-.24,3.74-3.08,3.44a65.56,65.56,0,0,0-6.87-.05h0c-2.79,0-5.59,0-8.39,0-1.62,0-2.22-.44-1.86-2.28,1.17-6.07,2.06-12.19,3.19-18.27.48-2.54.43-4.41-2.19-6.05-6.28-3.91-7-13.33-1.64-18.45a16.87,16.87,0,0,1,19.39-2.22C229.83,221.5,228.91,231.6,224,236.89Zm11.51-36.6c-7,.67-14,.49-20.94.55-16.79.13-33.59,0-50.37.74-2.4.11-3.55.6-3.95,3.32-.92,6.22-.47,12.44-.58,18.65-.16,9.13,0,18.26,0,27.39-2-1.49-2.2-3.32-2.2-5.2q-.06-21.39-.08-42.76c0-4.19,1.5-5.72,5.83-5.74q36.07-.12,72.17-.09c1.12,0,2.49-.26,2.55,1.44S236.72,200.17,235.51,200.29Z"/>
<path class="cls-3" d="M256.84,182.7c-.44-7,.22-14-.89-20.93a38.75,38.75,0,0,0-12.55-23.62c-10.87-9.73-23.6-13.22-37.94-11.24-13.83,1.92-24.52,8.44-30.67,21.32-3.69,7.74-4.16,16.08-3.71,25.48,0,2.32.09,5.63,0,8.94-.08,2,.31,3,2.67,2.94,4.19-.18,8.4-.18,12.59,0,2.47.09,3.31-.65,3.21-3.23a84.53,84.53,0,0,1,.64-16c1.78-11.88,12.27-21.88,23.75-21.69,12.44.21,22.05,7.29,24.54,20.92,1,5.71.52,11.42.57,17.12,0,2.19.59,2.88,2.78,2.78,4.07-.19,8.15-.24,12.21-.06C256.22,185.52,257,184.9,256.84,182.7Zm-60.15-43c-9.27,4.75-14.23,12.9-18.17,22,1.15-12.87,6.95-22.18,19.52-26.63,9.33-3.3,22.64-2.77,27.71,1.54C215.8,135.85,206,135,196.69,139.74Z"/>
<path class="cls-4" d="M301.33,244.64c-6,8.78-12.47,17.25-19,25.66-.65.84-1.17,2-2.43,2.26-.39-.34-.79-.65-1.15-1-4.93-4.95-9.84-9.93-14.79-14.85-1.84-1.83-1.25-3.35.39-4.84,3.65-3.3,5.18-3.26,8.73.21,4.85,4.75,4.84,4.75,9.22-.7,4.13-5.13,8.33-10.2,12.38-15.4,1.18-1.51,2.08-1.51,3.8-.81C306.1,238.24,305.9,238,301.33,244.64Z"/>
<path class="cls-4" d="M317.53,223.74c-1.85.16-3.76-.42-5.64-.64-11.1-1.28-21-5.27-29.37-12.79-1.64-1.48-2.61-1-3.75.32a26.85,26.85,0,0,1-8.53,6.25,68.88,68.88,0,0,1-24.22,7c-2.51.24-4.19,1-4,4.2.25,5.33,0,10.68,0,16,.07,9.15.89,18.16,4.72,26.67,6.69,14.91,19.18,23,33.6,28.9,1.72.71,3,0,4.31-.54a64.92,64.92,0,0,0,15.19-8.39c9.23-6.89,16.36-15.3,19.94-26.54,2.41-7.58,1.76-15.29,1.93-21.12,0-6.19-.14-10.52,0-14.84C321.84,225.15,321.1,223.45,317.53,223.74ZM312.44,242c.62,10.8-1.19,20.87-8.14,29.68-5.56,7.05-12.61,12-20.55,15.91a3.83,3.83,0,0,1-3.63,0c-12.26-6.11-22.73-13.91-26.76-27.88-2.57-8.88-2.27-18.06-2.72-27.16-.08-1.58,1-1.73,2.26-1.9a60.5,60.5,0,0,0,27.21-10.74c1.19-.86,1.78-.36,2.59.31,7.37,6.12,16.15,8.64,25.41,9.74,3.37.4,5,1.52,4.39,5.17A46.13,46.13,0,0,0,312.44,242Z"/>
<path class="cls-5" d="M152.9,171.15a8.57,8.57,0,0,1,3.71-.69c1.65,0,3.31,0,5-.05,2.47-.11,2.64-1.89,2.69-3.78.07-2.3-1.35-2.28-3-2.18-2.16.13-4.33.07-6.49.06-4.68,0-8.5,1.58-10.56,6-1,2.08-2.49,2.59-4.57,2.57-6.11-.06-12.22-.11-18.33,0-2.42,0-3.8-.56-4.92-3-2.31-5.05-8.3-7-13.61-4.91A11.29,11.29,0,0,0,95.92,178c1,4.11,3,7.42,7.3,8.29,4.66.93,9.2.48,12.3-3.88,1.13-1.58,2.26-2.66,3.74-.47,5.2,7.67,12.55,9.88,21.49,9.26,4.68-.32,7.51-2.51,10.37-6.09-11.79,1-22.2,1.36-26.46-5.56h32.68a10.3,10.3,0,0,0,4.51-.54c.94-.45,1.82-1.17,1.56-2.34s-1.36-1-2.21-1c-2.54-.1-5.09-.14-7.63-.17-1.42,0-3.3.06-3.46-1.52C150,172.76,151.56,171.74,152.9,171.15ZM106.49,181c-2.59-.45-4.53-1.89-4.85-4.78-.3-2.7,2.32-5.52,5-5.67,2.46-.14,5.11,2.31,5.3,4.9C112.11,177.85,109.23,180.88,106.49,181Z"/>
<path class="cls-6" d="M330.66,174.87c-.58-5.43-3.84-9.18-9-10.37-4.39-1-10,1.19-12,5.41-1.32,2.84-3,3.51-5.84,3.41-4.32-.16-8.66.21-13,0a12.33,12.33,0,0,0-10.19,4.12c-2.18,2.4-4.33,3.8-7.9,3-2.76-.6-5.75-.12-8.64-.12-.08.31-.15.62-.23.93,3.88,1.72,7.74,3.46,11.63,5.14,2.46,1.07,4.89.8,6.5-1.36,4.12-5.57,9.85-6,16-5.53,2.53.18,5.09.08,7.63,0a3.39,3.39,0,0,1,3.59,1.89c3.06,5.18,9.31,6.86,14.92,4.39A11.07,11.07,0,0,0,330.66,174.87Zm-11.46,5.79a5,5,0,0,1-4.94-5.1,5.27,5.27,0,0,1,5.05-5.12,5.36,5.36,0,0,1,5.17,5A5.14,5.14,0,0,1,319.2,180.66Z"/>
<path class="cls-7" d="M164.83,148.17c-8,.21-16,0-24,.16a4.68,4.68,0,0,1-4.82-2.64c-2.93-5-10.38-6.29-14.89-2.78a10.74,10.74,0,0,0-1.48,15.78c4,4.42,12,4.95,15-.07,2.73-4.56,6-4.32,10-4.18,2.66.09,5.34,0,8,0v.17c3.94,0,7.89-.14,11.82.05,2.47.13,3.73-.25,3.68-3.17C168.1,149,167.56,148.09,164.83,148.17ZM127.05,156c-3.27.06-4.33-2-4.44-4.4-.12-2.87,1.59-4.51,4.48-4.48,2.54,0,4.37,1.11,4.38,4.06A4.51,4.51,0,0,1,127.05,156Z"/>
<path class="cls-3" d="M306,149.74c-1.09-5.15-4.25-8.18-9.13-8.77-4.66-.56-9.66,1.93-11.08,6.22-1,3-2.72,3.37-5.37,3.31-6.82-.13-13.64,0-20.69,0a19.7,19.7,0,0,1,.8,2.88c.35,3.35,2.12,4.17,5.38,3.89,5-.42,10.16-.14,15.23-.42,2.8-.16,4.93.18,7,2.53,3,3.42,8.41,3.69,12.61,1.3C304.62,158.42,306.86,153.79,306,149.74Zm-10.24,6.52c-3.18-.1-4.75-1.56-4.77-4.47s1.46-4.36,4.43-4.45,4.53,1.86,4.6,4.37A4.24,4.24,0,0,1,295.76,156.26Z"/>
<path class="cls-3" d="M140.63,204.75c-6.61,0-13.23-.06-19.84.05a3.85,3.85,0,0,1-4-2.16c-1.95-3.63-5-5-9.14-4.8A10.45,10.45,0,0,0,98,205.91a10.1,10.1,0,0,0,5.19,11.22c3.7,1.91,10.6,1.17,12.44-2.31,2.37-4.47,5.81-4.53,9.81-4.31,1.65.09,3.3,0,5,0v.15c3.44,0,6.87.09,10.3,0,2-.07,3.93-.45,3.93-3.11S142.67,204.74,140.63,204.75ZM108,212.49c-3,0-4.24-1.84-4.31-4.56-.07-3,2-4.44,4.59-4.41a4.44,4.44,0,0,1,4.49,4.72C112.77,210.9,111.05,212.62,108,212.49Z"/>
<path class="cls-3" d="M322.16,198.79c-4.44-2-10.06-.95-12.49,3.19-1.56,2.66-3.34,2.81-5.85,2.84a142.13,142.13,0,0,1-15.57-.75c-1-.09-3.44-.48-2.36,1.49,1.33,2.41,2.49,5.6,6.53,5.31s8.38,0,12.56-.11a4.1,4.1,0,0,1,4,2.06c1.93,2.88,4.4,5.29,8.36,5,5.19-.08,8.58-2.95,9.75-8.26A9.52,9.52,0,0,0,322.16,198.79Zm-4.9,13.38a3.76,3.76,0,0,1-3.9-4.25c.14-2.27,1.35-4.11,4.54-4,2.14.25,4,1.25,3.88,4.2S319.73,212.19,317.26,212.17Z"/>
<path class="cls-6" d="M144.21,236.61c-1.17-1.5-1.21-4.55-4.63-3.64-1.9.5-4.05,0-6.08.11-2.66.18-4.55-.2-6-3.06-2-3.91-7.17-5.26-11.66-3.87a10.25,10.25,0,0,0,.15,19.72c4.83,1.34,9.41-.29,11.63-4.75a4.21,4.21,0,0,1,4.73-2.71c1.39.11,2.8,0,4.19,0,2,0,4.07,0,6.11,0C143.81,238.4,145,237.6,144.21,236.61Zm-25.33,4.18c-2.51-.44-4.5-1.62-4.6-4.51-.08-2.53,2.52-5,4.94-4.7,2.68.32,4.51,1.93,4.42,4.73S121.84,240.63,118.88,240.79Z"/>
<path class="cls-8" d="M131,260.51c-2.41,0-4.84-.16-7.23,0-2.84.24-4.06-.48-4.05-3.69,0-3.4,1.88-3.24,4.16-3.22,4.82,0,9.64.15,14.45,0,2.93-.11,4.19.41,4.22,3.86s-1.79,3.11-3.95,3.07c-2.53,0-5.07,0-7.6,0Z"/>
<path class="cls-3" d="M274.27,171.93c-2.28,0-4.58-.15-6.85,0-2.81.23-4-.44-4-3.67,0-3.5,1.87-3.21,4.11-3.17,5,.07,9.9.18,14.85.09,3.29-.06,3.17,2.2,3.28,4.35.13,2.52-1.68,2.37-3.38,2.36C279.6,171.92,276.94,171.93,274.27,171.93Z"/>
<path class="cls-4" d="M287.91,200.17a4.69,4.69,0,0,1-4-2.48c-1-1.54.52-2.38,1.36-3.07,3.29-2.68,5.76-6.36,10.05-7.83,2.35-.81,7.85.7,8.54,3,.51,1.68.62,3.79-2.12,3.8a13.71,13.71,0,0,0-10.88,5.18A3.38,3.38,0,0,1,287.91,200.17Z"/>
<path class="cls-9" d="M136.53,224.87c-1.26,0-2.53-.09-3.77,0-2,.18-2.7-.95-2.73-2.69a2.41,2.41,0,0,1,2.5-2.72q4.16-.14,8.33,0c2.26.07,1.81,1.85,2,3.32.26,1.88-.83,2.13-2.18,2.18s-2.78,0-4.16,0Z"/>
<path class="cls-10" d="M301.33,244.64c-6,8.78-12.47,17.25-19,25.66-.65.84-1.17,2-2.43,2.26-.39-.34-.79-.65-1.15-1-4.93-4.95-9.84-9.93-14.79-14.85-1.84-1.83-1.25-3.35.39-4.84,3.65-3.3,5.18-3.26,8.73.21,4.85,4.75,4.84,4.75,9.22-.7,4.13-5.13,8.33-10.2,12.38-15.4,1.18-1.51,2.08-1.51,3.8-.81C306.1,238.24,305.9,238,301.33,244.64Z"/>
<path class="cls-2" d="M301.33,244.64c-6,8.78-12.47,17.25-19,25.66-.65.84-1.17,2-2.43,2.26-.39-.34-.79-.65-1.15-1-4.93-4.95-9.84-9.93-14.79-14.85-1.84-1.83-1.25-3.35.39-4.84,3.65-3.3,5.18-3.26,8.73.21,4.85,4.75,4.84,4.75,9.22-.7,4.13-5.13,8.33-10.2,12.38-15.4,1.18-1.51,2.08-1.51,3.8-.81C306.1,238.24,305.9,238,301.33,244.64Z"/></svg>