<svg width="60" height="60" viewBox="0 0 60 60" fill="none" xmlns="http://www.w3.org/2000/svg">
<circle cx="29.5902" cy="29.5902" r="29.5902" fill="url(#paint0_linear_1_423)"/>
<path d="M19.4666 31.0908L19.323 30.9443L19.321 30.9424L19.3191 30.9414C19.3178 30.9401 19.3166 30.9379 19.3152 30.9365C19.3123 30.9338 19.3089 30.931 19.3054 30.9277C19.2984 30.9211 19.2898 30.9138 19.28 30.9053C19.2604 30.8881 19.2353 30.8664 19.2029 30.8418C19.1382 30.7926 19.0452 30.729 18.9158 30.6523C18.661 30.5016 18.2607 30.2994 17.6443 30.0635C17.519 29.9998 17.4076 29.9434 17.3123 29.9111C17.2356 29.8852 17.1672 29.874 17.1091 29.8691C16.5342 29.577 15.995 29.2952 15.4578 28.8877C14.8571 28.3978 14.6049 27.6707 14.7166 26.918C14.9948 26.1082 15.6379 25.3947 16.4402 25.2783L16.4392 25.2764C16.5194 25.269 16.5914 25.2554 16.6375 25.2432C16.6992 25.2268 16.7808 25.2016 16.8328 25.1865C16.9616 25.1492 17.0558 25.129 17.1326 25.1289C17.6672 25.1289 18.2207 25.2656 18.6541 25.4121L18.7322 25.4385H18.7673C18.7775 25.4433 18.793 25.4497 18.8171 25.4619C18.8505 25.4789 18.9128 25.5115 18.9802 25.5371C19.0496 25.5635 19.1512 25.5937 19.2722 25.5938H19.824L19.7703 25.0449C19.621 23.5303 19.62 22.0094 19.7712 20.0146L19.7722 20.0068V19.998C19.9181 16.5965 21.5108 13.809 24.5671 12.0371L24.5886 12.0234C26.6444 10.6827 28.8421 10.0889 31.0408 10.0889C33.2393 10.0889 35.4363 10.6828 37.4919 12.0234L37.5115 12.0352C40.2893 13.6667 42.0203 16.166 42.3103 19.4014L42.3113 19.417L42.3142 19.4316C42.6099 21.3815 42.4636 23.342 42.3103 25.208L42.2654 25.749H42.8083C42.8467 25.749 43.0204 25.7594 43.1873 25.6748C43.2652 25.6352 43.3233 25.5864 43.3601 25.5527C43.366 25.5473 43.3716 25.5409 43.3777 25.5352C43.7936 25.4021 44.3017 25.2833 44.7947 25.2832C45.1506 25.2832 45.5235 25.4023 45.989 25.5596C46.8733 25.9512 47.3512 26.7028 47.3513 27.5742C47.3513 28.058 47.1037 28.6779 46.6316 29.0371C46.0734 29.4618 45.5112 29.7497 44.782 30.0469L44.2136 30.1904L44.1599 30.2041L44.1101 30.2295C44.0095 30.2805 43.9116 30.3059 43.7576 30.3506C43.6539 30.3806 43.4503 30.4361 43.2791 30.5771C43.1293 30.658 43.0106 30.736 42.9255 30.8008C42.8768 30.8379 42.8382 30.8707 42.8103 30.8955C42.7965 30.9077 42.7848 30.9185 42.7761 30.9268L42.7585 30.9443H42.7576L42.614 31.0908V31.3135C42.6142 31.3199 42.6145 31.3271 42.615 31.335C42.616 31.351 42.6179 31.3703 42.6208 31.3916C42.6269 31.4345 42.6381 31.4885 42.658 31.5488C42.691 31.6492 42.7493 31.7652 42.8445 31.8809C44.5721 35.5143 46.8106 37.4777 50.0212 38.292L50.0447 38.2979C50.3804 38.366 50.6233 38.4626 50.8259 38.5947C51.0216 38.7223 51.2023 38.8985 51.3982 39.1582L51.4783 39.3203V40.2373L51.4695 40.2471L51.4128 40.3047L51.3767 40.3779C50.9853 41.1719 50.3392 41.7043 49.3933 41.9785L49.3826 41.9814L49.3728 41.9854C48.4314 42.3037 47.7301 42.5887 46.8757 42.7363C46.5703 42.7408 46.2401 42.7825 45.9763 43.0117C45.7109 43.2425 45.6072 43.5846 45.532 43.8896L45.5271 43.9092L45.5242 43.9287C45.4485 44.3891 45.3481 44.7783 45.1287 45.0566C44.936 45.301 44.5971 45.5254 43.8777 45.5254H43.4197C43.2575 45.5254 43.1426 45.5239 43.0515 45.5107C43.0181 45.5059 42.9989 45.4992 42.989 45.4961L42.9138 45.4199L42.7781 45.3857L42.531 45.3291C41.9698 45.2142 41.5087 45.2148 40.9744 45.2148C39.4656 45.2148 38.2952 45.7324 37.1658 46.5508L37.1326 46.5752L37.1033 46.6045C36.8441 46.8674 36.6224 46.9692 36.1091 47.3164L36.1003 47.3223L36.0925 47.3281C34.489 48.5113 32.7577 49.0917 31.0408 49.0918C29.4616 49.0918 28.0215 48.6568 26.5623 47.7686L26.5457 47.7588L26.5291 47.75L26.3171 47.6357C25.8217 47.3548 25.3141 46.9707 24.7712 46.5576L24.1599 46.0928L24.1492 46.084L24.1375 46.0762C23.6386 45.7388 22.9283 45.3701 22.0232 45.3701H21.2595C20.917 45.3701 20.5792 45.4131 20.2791 45.4512C19.9681 45.4906 19.6941 45.5254 19.4255 45.5254H18.0496C17.5487 45.5253 17.1759 45.3688 16.9148 45.1318C16.6543 44.8953 16.4729 44.549 16.408 44.1123C16.4051 43.7352 16.3671 43.2823 16.0007 42.9443C15.6624 42.6323 15.134 42.5077 14.4666 42.4307C14.118 42.359 13.7626 42.2516 13.407 42.1377C13.0769 42.0319 12.7316 41.917 12.4207 41.835C11.4676 41.4159 10.9386 40.8743 10.533 40.1885L10.5017 40.1357L10.4587 40.0928L10.45 40.083V39.2529L10.6121 39.0889L10.6462 39.0537L10.6736 39.0127C10.8921 38.6802 11.2223 38.4309 11.8826 38.2969C14.6571 37.7965 16.9011 35.9755 18.6306 33.1045L18.6345 33.0977L18.6384 33.0918C18.943 32.551 19.1408 32.1902 19.2625 31.9434C19.3701 31.725 19.4665 31.5072 19.4666 31.2959V31.0908Z" fill="white" stroke="black"/>
<defs>
<linearGradient id="paint0_linear_1_423" x1="3.27093" y1="33.6548" x2="59.1804" y2="32.4964" gradientUnits="userSpaceOnUse">
<stop stop-color="#FFFC00"/>
<stop offset="1" stop-color="#FFFC00"/>
</linearGradient>
</defs>
</svg>
