<svg xmlns="http://www.w3.org/2000/svg" viewBox="0 0 426.35 426.35"><path class="cls-1" d="M127.12,269.5c-4.15-1.17-7.07-3.92-10.53-5.65-1.77-.88-.82-3-.66-4.51,1.32-11.79,8.33-19.12,18.83-23.62a72,72,0,0,1,16.88-4.55c-11.27-5.72-16.46-13.68-12.1-25.46a16.94,16.94,0,0,1,17.59-11.18c7.78.72,13.84,6.42,15.72,14.76s-2.32,15.25-13.64,21.88c4.76,1.24,9.5,1.37,13.86,3.07,8.49,3.3,16.06,7.55,18.55,17.27.18.73.43,1.44.54,2.18,1.08,7.41,1.05,7.36-5.9,10.21-7.24,3-13.49,7-15.71,15.2a13.17,13.17,0,0,0-.53,2.19c-.48,4.86-.44,4.76-5.35,3.35a218.08,218.08,0,0,1-29.53-10.36c-4.72-2.13-6.95-5.07-6.44-10.17.13-1.25,0-2.53,0-4.35C126.69,263,127.44,266.29,127.12,269.5Z"/><path class="cls-1" d="M298.31,261.69c2.33,8.26-2.85,11-8.94,13.85-9.76,4.55-19.95,7.57-30.59,10.31-.21-4.52-.63-8.75-3.29-12.56-4.29-6.17-10.81-8.45-17.36-10.83-2-.72-4.24-.83-2-4.1,1.22-1.79.83-4.64,1.25-7,1.68-9.33,8-14.22,16.43-17.08a102.52,102.52,0,0,1,13.69-3.14c-9.6-4.23-13.53-11.6-12.57-21.48a16.74,16.74,0,0,1,7.12-12c7.23-5.32,18.61-3.42,24,4.2a19.21,19.21,0,0,1,2.8,17c-1.71,6.22-6.24,9.78-13.06,12.59,8.19,1.25,14.86,3.28,21,6.73,8.72,4.91,14.26,11.94,14.62,22.39.08,2.07-.5,3.25-2.39,4.17a46.9,46.9,0,0,0-6.49,3.9c-2.28,1.61-2.78.7-2.71-1.57A7.33,7.33,0,0,0,298.31,261.69Z"/><path class="cls-2" d="M218.22,264.44c10.18,1.64,19.66,3.13,27.84,8.65,4.07,2.74,6.94,6.19,7.34,11.32.16,2.06-.15,3-2.66,3.4a212.73,212.73,0,0,1-61.45,1.6c-4.4-.51-8.79-1-13.15-1.78-1.52-.29-2.11-.6-1.78-2.7,1.19-7.59,6.19-11.63,12.52-14.6,6.89-3.24,14.33-4.59,22.48-5.82-5.07-2.93-9.48-5.81-11.59-11s-2.43-10.25-.23-15.47c3.09-7.36,9.93-11.31,18.73-10.67,6.84.49,12.92,6.23,14.72,13.89C233,249.88,228.79,257.86,218.22,264.44Z"/><path class="cls-2" d="M213.19,183.56c-5.39-7.93-11.77-10.55-19.24-8.08-7,2.32-10.32,8.84-8.21,16,2.21,7.51,7.48,12.85,12.86,18,4.27,4.13,8.84,7.94,13.46,12.06-3.35,2.11-7.25,2.33-10.6,4-.78.38-1.14-.33-1.56-.74-5.81-5.69-12.24-10.76-17.25-17.24-4.09-5.28-7.24-11.1-8-17.76-1.05-9.62,2.95-17.38,11.26-22,17.55-9.74,35.65-9.66,53.32-.43,15.18,7.92,15.18,22.53,8.77,34.08-4.87,8.77-12.14,15.6-19.25,22.5-.51.49-1.4,1.1-2,1-3.86-.91-8-.89-11.93-3.06,5.83-5.6,11.58-10.93,17.09-16.49,4-4,7.71-8.42,9.09-14.17,2.26-9.36-6.64-18.34-16.09-16.34C219.79,176,216.37,179.43,213.19,183.56Z"/><path class="cls-1" d="M115.65,265.2a112.07,112.07,0,0,0,29.83,18.71,174.54,174.54,0,0,0,78.69,13.48c27.31-1.52,53.37-8.08,76.48-23.61a85.68,85.68,0,0,0,9-7c1.86-1.64,2.56-.42,2.87.92a7.4,7.4,0,0,1-2.61,7.47A109,109,0,0,1,284,292.3c-15.32,7.43-31.49,11.71-48.42,13.88-30.91,4-60.51-.51-89.1-12.38a100.94,100.94,0,0,1-28.18-17.64C114.5,272.81,114.06,270.51,115.65,265.2Z"/><path class="cls-3" d="M151.24,158.66c-2.4-.37-3.93-.66-4.91-3.39a13.69,13.69,0,0,0-13.46-8.62c-6.63.46-12.4,4.7-13.72,10.69-1.56,7.06.91,12.79,6.94,17a2,2,0,0,1-2.31-.3c-2.48-2.31-3.84-1.14-5.5,1.25A114.07,114.07,0,0,0,103.08,206c-.92,2.91.81,3.46,2.64,3.73,1.62.23,3.65,2.76,4.87-1.32a101.06,101.06,0,0,1,15.85-30.83c2.33-3.15,5.89-3.1,8.12.05,2.42,3.42,5,6.76,7.18,10.29,1.95,3.11,3.94,4.56,7.86,2.94,2.12-.88,2.41-1.3,1.18-3-2.23-3.08-4.3-6.29-6.67-9.25s-4.09-5.59,0-8.58c1-.74,1.56-2.28,2-3.56.59-1.54,1.22-1.67,2.83-1.2,5.1,1.48,10.33,2.48,15.44,3.92,5.7,1.61,11.06,2.37,14.81-3.67a7.27,7.27,0,0,0,.3-.71C170,162.44,160.73,160.11,151.24,158.66Zm-18.05,9.11a6.35,6.35,0,0,1-6.47-6.48,7,7,0,0,1,6.67-6.91c3.33-.08,6.8,3.41,6.79,6.83S136.93,167.73,133.19,167.77Z"/><path class="cls-3" d="M307,157.53c-2.06-6.73-6.15-10.2-13-10.87-5.44-.53-11,2.65-13.76,8.23a6,6,0,0,1-5.36,3.89c-9.65,1.13-19.08,3.46-28.74,5.94a11.28,11.28,0,0,1,1.56,2.11c1.59,4,4.29,4.45,8.18,3.34,5.44-1.56,11.09-2.38,16.57-3.81,3.93-1,7.66-2.48,9.22,3.2.23.87,1.24,1.61,2,2.23,1.4,1.12,1.6,1.92.33,3.54-3.17,4.08-6,8.46-9,12.66-1.3,1.8-1.12,2.28,1.21,2.74,4.11.81,6.5-.48,8.81-4.06,3.4-5.25,5.93-12,14-11.92h0a49.09,49.09,0,0,0,4.38-4C306.75,167,308.54,162.69,307,157.53Zm-14.13,10.23a5.86,5.86,0,0,1-6.1-5.83c-.21-4.6,2.28-7.74,6.24-7.86,3.28-.1,6.73,3.29,6.93,6.81S296.9,167.58,292.82,167.76Z"/><path class="cls-4" d="M132.43,218.5c-.24-3.14-2.42-1.25-3.7-1.05-4,.65-7.95,1.4-11.88,2.33-3.21.76-6.28,1.83-8.12-2.29a5.87,5.87,0,0,0-2.25-2c-5-3.25-10.08-4.51-15.68-1.33s-7.75,8.09-7.14,14.3c.55,5.54,3.87,8.94,8.93,10.72a15.21,15.21,0,0,0,7.52.53c1.16-.18,1.79-.11,2,1.41.68,5.89,3.61,10.89,7,16.64a12.33,12.33,0,0,1,.84-2.76c3-4.37,3.4-8.78.44-13.35a11.9,11.9,0,0,1-.84-2.11,9.2,9.2,0,0,1,6.26-12.12c4.67-1.06,9.32-2.24,14-3.08C133.73,223.61,132.6,220.77,132.43,218.5Zm-27.51,7.55c-.35,3.48-4,6.71-7.28,6.48a7.12,7.12,0,0,1-6.2-7c.25-3.86,3.25-6.29,7.36-6C102.36,219.86,105.24,222.91,104.92,226.05Z"/><path class="cls-1" d="M339.86,217.9c-5.51-7.27-16.26-7.17-22.63.36-1.41,1.67-2.71,3-5,2.13-4.51-1.79-9.32-2.15-14-3-1.48-.27-3.47-2.09-4.39.5-1.14,3.22.15,5.34,3.35,6.11,5,1.21,10.08,2.18,15,3.56,4,1.11,7,7.6,5.45,11.46-2.44,6-4.78,11.9-.06,18.1a39,39,0,0,0,5.75-13.5c.64-2.92,1.32-4.13,4.75-3.8,5.78.57,10.35-2,13-7.34C343.69,227.36,343.32,222.48,339.86,217.9Zm-11.47,14.71a6.54,6.54,0,0,1-6.49-6.49,6.28,6.28,0,0,1,6.22-6.64c3.84,0,6.77,2.61,6.83,6.1S331.74,232.59,328.39,232.61Z"/><path class="cls-2" d="M222.33,122.3c-4.33-4.83-14.63-4.73-19.14.44a12.56,12.56,0,0,0,2.42,18.86c2.67,1.75,4.18,3.38,3.34,6v1.76c0,4.73,0,4.57,5.94,4.71,4.44.1,2.93-2.92,2.78-5-.26-3.41.23-5.77,3.53-8C227.33,136.79,227.27,127.82,222.33,122.3Zm-9.22,13.79a6.12,6.12,0,1,1,6.12-6.12A6.12,6.12,0,0,1,213.11,136.09Z"/><path class="cls-5" d="M234.36,132.13c14.91,1.53,28.62,7.43,41.53,15.36,3.73,2.29-.47,3.9-.93,5.79s-1.67,1.38-3.13.51c-11.69-6.94-24.08-12.18-37.61-14.22-4.22-.63-2-3.58-2.39-5.55C231.56,132.59,232.17,131.46,234.36,132.13Z"/><path class="cls-6" d="M193.56,136.62c.59,2.23-.71,2.64-2,2.86-13,2.28-25.09,7.18-36.59,13.62-1.19.66-3.07,2.65-4.16-.52-.73-2.13-3.7-3.83.3-6.15,12.45-7.23,25.6-12.38,39.88-14.3C194.78,131.62,192.47,135.55,193.56,136.62Z"/><path class="cls-3" d="M298.94,174.84c1-.24,2.2-.18,2.89-.75,3.61-3,4.78-.55,6.63,2.26,6.17,9.41,11.5,19.17,14.44,30.1.29,1.09,1.88,3-.48,3.18-2.14.15-5.08,3.14-6.64-1.25a124.83,124.83,0,0,0-13.25-27c-1.37-2.08-3-4-3.49-6.61A.94.94,0,0,0,298.94,174.84Z"/></svg>