<svg width="36" height="36" viewBox="0 0 36 36" xmlns="http://www.w3.org/2000/svg">
<path d="M27.3907 36C26.2654 34.8999 25.1156 33.7773 24.0148 32.6547C23.5989 32.2281 23.2319 32.0934 22.5469 32.2506C12.5903 34.7202 2.60912 29.3094 0.431861 20.0817C-1.94111 9.95594 5.81385 1.44672 15.1834 0.189423C24.9688 -1.13523 33.947 4.61242 35.586 13.5258C36.7848 20.149 34.1427 25.5599 28.3448 29.6237C27.6598 30.0952 27.4397 30.5442 27.5131 31.2851C27.6598 32.7669 27.7088 34.2712 27.8066 35.753C27.6598 35.8204 27.5375 35.9102 27.3907 36Z" />
<path d="M22.7924 12.403C22.8413 13.9971 22.1563 15.1197 20.9332 15.9279C19.6611 16.7811 18.4379 17.6118 18.4134 19.2732C18.4134 19.8121 17.9731 20.0591 17.3859 19.9917C16.7988 19.9243 16.4563 19.5876 16.4074 19.0263C16.2851 17.4771 16.9456 16.2647 18.2666 15.3442C18.7559 15.0074 19.2452 14.6706 19.6611 14.2665C20.4684 13.5256 20.5662 12.6275 20.1259 11.6845C19.6366 10.5844 18.6091 10.2925 17.4349 10.2925C16.334 10.2925 15.5756 10.7416 15.1598 11.6845C15.0619 11.8866 14.9885 12.1111 14.9396 12.3132C14.8173 12.9194 14.3769 13.099 13.7653 13.0317C13.1782 12.9643 12.8113 12.6275 12.7623 12.0662C12.6645 11.1906 13.0314 10.4497 13.5941 9.77615C14.7928 8.29433 17.2636 7.75549 19.4898 8.45149C21.4958 9.05769 22.8169 10.6967 22.7924 12.403Z" fill="white"/>
<path d="M19.5615 23.54C19.5125 24.5054 18.6074 25.2463 17.5065 25.2014C16.4546 25.1341 15.6962 24.3932 15.7207 23.4277C15.7451 22.4623 16.6992 21.6091 17.6778 21.654C18.6808 21.7214 19.5859 22.6195 19.5615 23.54Z" fill="white"/>
</svg>
