<svg width="46" height="36" viewBox="0 0 46 36" xmlns="http://www.w3.org/2000/svg">
<g clip-path="url(#clip0_1_676)">
<path d="M14.8879 35.9406C11.0323 35.9406 7.1767 35.8201 3.35079 35.9707C0.533249 36.0912 -0.267524 34.2535 0.118033 32.0544C0.978124 27.0535 3.73634 23.3481 8.36304 21.4803C14.443 19.0401 20.3746 19.4619 25.5945 23.8301C28.4417 26.21 29.8949 29.3732 29.6577 33.1991C29.539 35.1573 28.7976 35.9104 26.8995 35.9104C22.8659 35.9406 18.8621 35.9406 14.8879 35.9406Z" />
<path d="M14.9767 17.1723C10.35 17.1421 6.46479 13.0752 6.52411 8.31535C6.58342 3.76639 10.528 -0.059549 15.125 0.000702074C19.6627 0.0609531 23.4886 4.09777 23.4293 8.79735C23.3997 13.4668 19.6034 17.2325 14.9767 17.1723Z" />
<path d="M38.4367 35.9404C36.7165 35.9404 34.9666 35.9102 33.2465 35.9404C32.4753 35.9404 32.2677 35.7897 32.416 34.9161C33.1575 30.8793 32.2974 27.1738 29.8358 23.8901C29.4502 23.378 28.946 22.9563 29.9247 22.5948C37.8732 19.6123 46.3258 26.2399 45.9699 33.4098C45.8809 35.0065 45.0505 35.8801 43.4489 35.9102C41.7881 35.9705 40.1272 35.9404 38.4367 35.9404Z" />
<path d="M26.3368 11.2071C26.3961 7.11001 29.4806 3.97696 33.3658 4.06734C37.2511 4.15771 40.4245 7.5619 40.3355 11.5385C40.2465 15.4247 36.9545 18.6782 33.1582 18.5878C29.273 18.5276 26.2775 15.274 26.3368 11.2071Z" />
</g>
<defs>
<clipPath id="clip0_1_676">
<rect width="46" height="36" fill="white"/>
</clipPath>
</defs>
</svg>
