<svg width="63" height="37" viewBox="0 0 63 37" xmlns="http://www.w3.org/2000/svg">
<path d="M58.7898 8.86176L61.7223 10.1565L62.5027 8.36132C62.7786 7.7179 62.4869 6.97121 61.8563 6.68525L61.2335 6.40723C60.9261 6.27219 60.5792 6.26425 60.2718 6.39134C59.9644 6.51844 59.7121 6.75674 59.5781 7.06653L58.7898 8.86176Z" />
<path d="M48.0369 7.44876C48.4783 7.89359 49.0696 8.13984 49.6923 8.13984C49.6923 8.13984 49.6923 8.13984 49.7002 8.13984L54.1226 8.13189L47.359 1.31641L47.3511 5.77269C47.3511 6.40816 47.5954 7.00392 48.0369 7.44876Z" />
<path d="M60.5778 11.0381L58.2839 10.0293L51.9223 24.6611L54.8548 25.9559L61.2164 11.3241L60.5778 11.0381Z" />
<path d="M54.2888 27.0927L51.4825 25.8535L52.0658 28.3557L54.2888 27.0927Z" />
<path d="M28.1321 35.6394C28.1401 35.6474 28.1561 35.6554 28.164 35.6633C28.1561 35.6554 28.1481 35.6474 28.1321 35.6394Z" />
<path d="M28.6439 35.9727C28.6913 35.9966 28.7309 36.0205 28.7784 36.0444C28.7388 36.0205 28.6913 35.9966 28.6439 35.9727Z" />
<path d="M51.6468 29.9598C51.5601 29.9598 51.4734 29.9439 51.3945 29.9042C51.2763 29.8486 51.1817 29.7692 51.1108 29.658H31.8289V28.387H50.7797L50.1806 25.8133C50.149 25.6783 50.1648 25.5353 50.22 25.4162L50.6535 24.4073H31.8289V23.1364H51.1738V23.192L55.005 14.3668V9.39421L49.6918 9.40215H49.6839C48.7222 9.40215 47.8157 9.02086 47.1298 8.33773C46.444 7.64665 46.0735 6.73315 46.0735 5.76405L46.0814 0.410156H30.3469C29.0541 0.4181 27.9978 1.48252 27.9978 2.78525V32.7639C27.9978 34.0825 29.062 35.1469 30.3627 35.1469H52.6479C53.9565 35.1469 55.0128 34.0745 55.0128 32.7639V28.1408L51.9542 29.8883C51.8596 29.936 51.7493 29.9598 51.6468 29.9598ZM41.5093 12.6431H51.1817V13.914H41.5093V12.6431ZM31.8289 17.8937H51.1738V19.1647H31.8289V17.8937Z" />
<path d="M28.5096 35.8936C28.5333 35.9095 28.5571 35.9175 28.5729 35.9334C28.5571 35.9255 28.5333 35.9095 28.5096 35.8936Z" />
<path d="M28.2508 35.7266C28.2667 35.7425 28.2827 35.7505 28.2987 35.7664C28.2827 35.7505 28.2667 35.7345 28.2508 35.7266Z" />
<path d="M28.3773 35.8145C28.3931 35.8304 28.4168 35.8384 28.4326 35.8543C28.4168 35.8384 28.3931 35.8224 28.3773 35.8145Z" />
<path d="M26.7761 33.2802C26.7681 33.2404 26.7681 33.2007 26.7601 33.1689C26.7601 33.2007 26.7681 33.2404 26.7761 33.2802Z" />
<path d="M29.7879 36.3628C29.7484 36.3548 29.7088 36.3468 29.6772 36.3389C29.7088 36.3548 29.7484 36.3628 29.7879 36.3628Z" />
<path d="M29.4263 36.2907C29.3867 36.2827 29.3472 36.2668 29.2997 36.2588C29.3472 36.2668 29.3867 36.2747 29.4263 36.2907Z" />
<path d="M29.6233 36.3387C29.5679 36.3307 29.5126 36.3148 29.4651 36.2988C29.5205 36.3148 29.5679 36.3228 29.6233 36.3387Z" />
<path d="M29.087 36.1794C29.0554 36.1714 29.0316 36.1554 29 36.1475C29.0237 36.1554 29.0554 36.1634 29.087 36.1794Z" />
<path d="M29.2448 36.235C29.2131 36.2271 29.1815 36.2111 29.1498 36.2031C29.1815 36.2111 29.2131 36.2191 29.2448 36.235Z" />
<path d="M29.9614 36.3861C29.9218 36.3781 29.8901 36.3781 29.8506 36.3701C29.8901 36.3781 29.9218 36.3861 29.9614 36.3861Z" />
<path d="M30.1345 36.4025C30.0949 36.4025 30.0554 36.3945 30.0158 36.3945C30.0633 36.4025 30.0949 36.4025 30.1345 36.4025Z" />
<path d="M28.9274 36.1161C28.8958 36.1001 28.872 36.0921 28.8404 36.0762C28.872 36.0841 28.9037 36.1001 28.9274 36.1161Z" />
<path d="M26.7992 33.415C26.7992 33.3991 26.7913 33.3831 26.7913 33.3672C26.7913 33.3831 26.7913 33.3991 26.7992 33.415Z" />
<path d="M30.3631 36.4103C30.3077 36.4103 30.2444 36.4103 30.189 36.4023C30.2523 36.4103 30.3077 36.4103 30.3631 36.4103Z" />
<g clip-path="url(#clip0_1_642)">
<path d="M5.06072 12.4643C5.06072 10.5911 5.06072 8.71781 5.06072 6.82055C5.08494 2.88192 8.13641 0 12.3261 0C16.1041 0 19.1071 2.97799 19.1071 6.79653C19.1071 10.543 19.1314 14.3135 19.1071 18.06C19.0829 21.4223 16.2494 24.4483 12.8831 24.7845C9.08091 25.1688 5.64196 22.8632 5.1576 19.2849C4.84276 17.0514 5.10916 14.7458 5.10916 12.4643C5.08494 12.4643 5.06072 12.4643 5.06072 12.4643Z" />
<path d="M11.9158 35.9996C10.3901 35.9996 8.86436 35.9996 7.31441 35.9996C6.20038 35.9996 5.5465 35.3512 5.78867 34.5106C5.9582 33.8862 6.44256 33.6221 7.07223 33.6461C7.99251 33.6461 8.93701 33.598 9.85729 33.6701C10.7534 33.7421 10.9713 33.4059 10.8987 32.5894C10.826 31.6287 11.1651 30.524 10.7534 29.7555C10.3659 29.011 9.10654 29.2511 8.23469 28.987C3.56062 27.546 0.194326 23.1991 0.000582043 18.2758C-0.0236359 17.3872 0.000582043 16.5227 -0.0236359 15.6341C-0.0478539 14.7935 0.170108 14.049 1.16304 14.049C2.25285 14.049 2.4466 14.8175 2.42238 15.7061C2.34972 17.6994 2.42238 19.6688 3.27001 21.566C5.11057 25.6968 9.39715 27.8582 14.1197 26.9456C18.2367 26.1291 21.4335 22.2625 21.4819 18.0117C21.4819 17.051 21.4577 16.0904 21.5061 15.1297C21.5546 14.4813 21.9178 14.001 22.6686 14.001C23.3709 14.001 23.8311 14.3372 23.8795 15.0577C24.1459 18.9002 23.71 22.5747 20.9491 25.5767C19.1086 27.594 16.8563 28.9149 14.1439 29.3712C13.4416 29.4913 13.1752 29.7074 13.2478 30.4279C13.3447 31.4606 12.8361 32.7815 13.4416 33.4299C14.0712 34.0784 15.4274 33.6221 16.4688 33.6221C17.3164 33.6221 18.0672 33.7181 18.0914 34.7508C18.0914 35.7595 17.3406 35.9516 16.493 35.9516C14.9673 35.9516 13.4173 35.9516 11.8916 35.9516C11.9158 35.9516 11.9158 35.9756 11.9158 35.9996Z" />
</g>

</svg>
