<svg width="29" height="36" viewBox="0 0 29 36" xmlns="http://www.w3.org/2000/svg">
<g clip-path="url(#clip0_1_684)">
<path d="M14.4233 36C11.2266 36 8.02998 36 4.83333 36C1.76455 36 0 34.2345 0 31.1642C0 26.8657 0 22.5672 0 18.2431C0 15.8635 0.946208 14.7377 3.32451 14.4051C4.01499 14.3028 3.98942 13.9445 4.01499 13.4584C4.06614 12 3.96384 10.5671 4.14286 9.10872C4.83333 3.65883 9.61552 -0.281469 15.216 0.0255672C20.6376 0.307017 25.0617 4.88698 25.1129 10.2857C25.1129 10.8486 25.1384 11.3859 25.1129 11.9488C25.0617 13.2537 24.8571 14.4051 26.8519 14.661C28.2584 14.8401 28.9744 16.2985 28.9744 17.7825C29 22.4392 29 27.0703 28.9744 31.7271C28.9744 34.0298 27.3122 35.8209 24.8827 35.8976C21.4048 36 17.9012 35.9232 14.3977 35.9232C14.4233 35.9488 14.4233 35.9744 14.4233 36Z" />
<path d="M14.4753 14.2513C12.6341 14.2513 10.8184 14.2001 8.9771 14.2769C8.10761 14.3024 7.87746 13.9954 7.9286 13.1766C8.00532 12.0764 7.9286 10.9506 7.97975 9.85042C8.13319 6.39626 11.1253 3.65852 14.6799 3.70969C18.1067 3.76086 21.0221 6.65212 21.0477 10.1063C21.0732 11.1809 20.9965 12.2299 21.0732 13.3046C21.1499 14.2001 20.7663 14.328 19.9736 14.3024C18.1579 14.2513 16.3166 14.2769 14.4753 14.2769V14.2513Z" fill="#FCFCFB"/>
<path d="M13.1706 27.5305C13.2729 26.0721 13.324 24.7928 12.0454 23.8717C11.4316 23.4367 11.4828 22.7203 11.8152 22.0294C12.8637 19.9825 15.5233 19.6243 17.0322 21.3642C18.0039 22.4644 18.0039 23.3599 16.9043 24.3322C16.3417 24.8439 16.1115 25.3813 16.1371 26.0977C16.1627 27.07 16.1627 28.0422 16.1627 29.0401C16.1627 30.0892 15.6768 30.6009 14.6027 30.6009C13.5542 30.6009 13.145 30.0892 13.145 29.0913C13.1706 28.5028 13.1706 27.9399 13.1706 27.5305Z" fill="#FCFCFB"/>
</g>
<defs>
<clipPath id="clip0_1_684">
<rect width="29" height="36" fill="white"/>
</clipPath>
</defs>
</svg>
