<svg width="60" height="60" viewBox="0 0 60 60" fill="none" xmlns="http://www.w3.org/2000/svg">
<circle cx="29.5903" cy="29.5902" r="29.5902" fill="#2CB742"/>
<g clip-path="url(#clip0_1_417)">
<path d="M14.795 44.3853L17.3398 36.7515C16.0485 34.5797 15.3052 32.0452 15.3052 29.3351C15.3052 21.3049 21.8151 14.7951 29.8452 14.7951C37.8754 14.7951 44.3852 21.3049 44.3852 29.3351C44.3852 37.3653 37.8754 43.8751 29.8452 43.8751C27.402 43.8751 25.1011 43.2695 23.0803 42.2053L14.795 44.3853Z" fill="white"/>
<path d="M39.1226 34.1738C38.4512 32.905 35.9753 31.454 35.9753 31.454C35.4152 31.1347 34.7392 31.099 34.4198 31.6683C34.4198 31.6683 33.6153 32.6331 33.4107 32.7718C32.476 33.405 31.6103 33.3805 30.7363 32.5065L28.7053 30.4755L26.6743 28.4445C25.8004 27.5706 25.7759 26.7048 26.409 25.7702C26.5478 25.5656 27.5125 24.761 27.5125 24.761C28.0819 24.4412 28.0462 23.7657 27.7268 23.2055C27.7268 23.2055 26.2759 20.7296 25.0071 20.0582C24.4673 19.7726 23.8046 19.8725 23.373 20.3042L22.4761 21.201C19.6308 24.0463 21.0318 27.2584 23.877 30.1036L26.4774 32.704L29.0778 35.3043C31.923 38.1496 35.1351 39.5505 37.9803 36.7053L38.8772 35.8084C39.3088 35.3758 39.4083 34.713 39.1226 34.1738Z" fill="#2CB742"/>
</g>
<defs>
<clipPath id="clip0_1_417">
<rect width="29.5902" height="29.5902" fill="white" transform="translate(14.795 14.7951)"/>
</clipPath>
</defs>
</svg>
