<svg width="32" height="32" viewBox="0 0 32 32" fill="none" xmlns="http://www.w3.org/2000/svg">
<path fill-rule="evenodd" clip-rule="evenodd" d="M15.706 31.3554C7.05786 31.3554 0.0351562 24.3199 0.0351562 15.6845C0.0351562 7.0469 7.0706 0.0136719 15.706 0.0136719C24.3436 0.0136719 31.3768 7.04912 31.3768 15.6845C31.3768 24.3221 24.3414 31.3554 15.706 31.3554ZM15.706 1.07162C7.65527 1.07162 1.10419 7.62215 1.10419 15.6734C1.10419 23.7242 7.65472 30.2752 15.706 30.2752C23.7567 30.2752 30.3078 23.7247 30.3078 15.6734C30.3078 7.6227 23.7573 1.07162 15.706 1.07162Z" fill="#343E54"/>
<path fill-rule="evenodd" clip-rule="evenodd" d="M15.7053 10.5988C11.3865 10.5317 7.12421 8.69377 4.28398 5.68252C4.08049 5.46821 4.09348 5.1305 4.30563 4.92699C4.51995 4.7235 4.85766 4.73649 5.06116 4.94864C7.71086 7.75639 11.6898 9.46873 15.7166 9.52504C19.8881 9.52504 23.3711 8.02484 26.3482 4.92481C26.5517 4.7105 26.8894 4.7105 27.1037 4.91399C27.318 5.11748 27.318 5.45519 27.1145 5.66952C23.9236 8.98385 20.1916 10.5966 15.7037 10.5966L15.7053 10.5988Z" fill="#343E54"/>
<path fill-rule="evenodd" clip-rule="evenodd" d="M26.6538 26.6657C26.5066 26.6657 26.3724 26.6094 26.2598 26.4968C25.0649 25.2348 23.6772 24.1848 22.1337 23.4077C20.0252 22.3361 17.973 21.8403 15.6957 21.8403C13.8123 21.8403 10.8595 22.3707 9.37016 23.215C9.35933 23.2258 9.34851 23.2258 9.3247 23.2367C7.74653 23.9576 6.24634 25.0399 4.98428 26.3605C4.78079 26.5748 4.44308 26.5856 4.22875 26.3713C4.01443 26.1678 4.00361 25.8301 4.21793 25.6158C5.57093 24.2065 7.17287 23.057 8.86359 22.2777C10.5326 21.3295 13.6435 20.7666 15.6957 20.7666C18.1527 20.7666 20.3521 21.3078 22.6186 22.4573C24.2768 23.3037 25.7641 24.4187 27.0392 25.7717C27.2426 25.986 27.2297 26.3237 27.0175 26.5272C26.9266 26.6181 26.7924 26.6614 26.656 26.6614L26.6538 26.6657Z" fill="#343E54"/>
<path fill-rule="evenodd" clip-rule="evenodd" d="M15.7047 31.3554C11.5548 31.3554 8.29688 24.4668 8.29688 15.6845C8.29688 6.90226 11.5549 0.0136719 15.7047 0.0136719C19.8546 0.0136719 23.1126 6.90226 23.1126 15.6845C23.1126 24.4668 19.8546 31.3554 15.7047 31.3554ZM15.7047 1.07162C12.267 1.07162 9.36812 7.75627 9.36812 15.6734C9.36812 23.5878 12.2668 30.2752 15.7047 30.2752C19.1427 30.2752 22.0414 23.5906 22.0414 15.6734C22.0414 7.75904 19.1319 1.07162 15.7047 1.07162Z" fill="#343E54"/>
<path fill-rule="evenodd" clip-rule="evenodd" d="M15.7053 31.355C15.413 31.355 15.1641 31.1191 15.1641 30.8138V0.5412C15.1641 0.248954 15.4 0 15.7053 0C16.0105 0 16.2465 0.235963 16.2465 0.5412V30.8249C16.2356 31.1172 15.9997 31.355 15.7053 31.355Z" fill="#343E54"/>
<path fill-rule="evenodd" clip-rule="evenodd" d="M30.8488 16.2142H0.5412C0.248954 16.2142 0 15.9783 0 15.673C0 15.3678 0.235963 15.1318 0.5412 15.1318H30.8377C31.1299 15.1318 31.3789 15.3678 31.3789 15.673C31.3789 15.9783 31.1432 16.2142 30.8488 16.2142Z" fill="#343E54"/>
</svg>
